<?xml version="1.0" encoding="UTF-8" standalone="no"?>
<!-- Created with Inkscape (http://www.inkscape.org/) -->

<svg
   xmlns:dc="http://purl.org/dc/elements/1.1/"
   xmlns:cc="http://creativecommons.org/ns#"
   xmlns:rdf="http://www.w3.org/1999/02/22-rdf-syntax-ns#"
   xmlns:svg="http://www.w3.org/2000/svg"
   xmlns="http://www.w3.org/2000/svg"
   xmlns:sodipodi="http://sodipodi.sourceforge.net/DTD/sodipodi-0.dtd"
   xmlns:inkscape="http://www.inkscape.org/namespaces/inkscape"
   width="47.148209mm"
   height="9.3830004mm"
   viewBox="0 0 47.148209 9.3830004"
   version="1.1"
   id="svg875"
   inkscape:version="0.92.2 (5c3e80d, 2017-08-06)"
   sodipodi:docname="Pennions-logo.svg">
  <defs
     id="defs869" />
  <sodipodi:namedview
     id="base"
     pagecolor="#ffffff"
     bordercolor="#666666"
     borderopacity="1.0"
     inkscape:pageopacity="0.0"
     inkscape:pageshadow="2"
     inkscape:zoom="2.8284271"
     inkscape:cx="110.2426"
     inkscape:cy="1.8180348"
     inkscape:document-units="mm"
     inkscape:current-layer="layer1"
     showgrid="false"
     inkscape:window-width="1920"
     inkscape:window-height="1017"
     inkscape:window-x="1912"
     inkscape:window-y="-8"
     inkscape:window-maximized="1"
     fit-margin-top="0"
     fit-margin-left="0"
     fit-margin-right="0"
     fit-margin-bottom="0" />
  <metadata
     id="metadata872">
    <rdf:RDF>
      <cc:Work
         rdf:about="">
        <dc:format>image/svg+xml</dc:format>
        <dc:type
           rdf:resource="http://purl.org/dc/dcmitype/StillImage" />
        <dc:title></dc:title>
      </cc:Work>
    </rdf:RDF>
  </metadata>
  <g
     inkscape:label="Layer 1"
     inkscape:groupmode="layer"
     id="layer1"
     transform="translate(-3.9639263,-14.399669)">
    <text
       xml:space="preserve"
       style="font-style:normal;font-variant:normal;font-weight:normal;font-stretch:normal;font-size:10.58349514px;line-height:1.25;font-family:casp;-inkscape-font-specification:casp;letter-spacing:0px;word-spacing:0px;fill:#000000;fill-opacity:1;stroke:none;stroke-width:0.26458737"
       x="14.285911"
       y="21.402691"
       id="text1653"><tspan
         sodipodi:role="line"
         id="tspan1651"
         x="14.285911"
         y="21.402691"
         style="font-style:normal;font-variant:normal;font-weight:bold;font-stretch:normal;font-size:6.35009718px;font-family:'DejaVu Sans';-inkscape-font-specification:'DejaVu Sans Bold';stroke-width:0.26458737">PENNIONS</tspan></text>
    <g
       transform="matrix(0.74901445,0,0,0.74901445,2.1905186,4.7915545)"
       id="g1490">
      <g
         inkscape:label="Layer 1"
         id="layer1-9"
         transform="matrix(0.31276667,0,0,0.31276667,-26.362344,-30.411542)">
        <g
           id="g875"
           transform="matrix(5.9161562,0,0,5.9161562,-465.69257,-790.05701)">
          <path
             style="stroke-width:0.00990374"
             id="path2"
             d="m 97.626981,157.75967 c -1.01959,0 -1.744246,0.82736 -1.743057,1.74544 5.94e-4,0.43853 0.163412,0.83854 0.431406,1.14427 0.254031,0.28969 0.498059,0.76159 0.519353,0.91332 l 5.95e-4,0.74458 c 0,0.0311 0.0093,0.0616 0.02655,0.0876 l 0.24274,0.36485 c 0.02942,0.0441 0.07893,0.0708 0.131919,0.0708 h 0.780909 c 0.05308,0 0.102602,-0.0265 0.131918,-0.0708 l 0.242739,-0.36485 c 0.01722,-0.026 0.02645,-0.0565 0.02655,-0.0876 l 6.92e-4,-0.74458 c 0.02239,-0.15568 0.267302,-0.62582 0.519353,-0.91332 0.26849,-0.30632 0.431401,-0.70722 0.431401,-1.14665 0,-0.96265 -0.780409,-1.74306 -1.743052,-1.74306 z m 0.474784,4.49936 -0.169254,0.25444 h -0.61116 l -0.169254,-0.25444 -1.13e-4,-0.0625 h 0.949769 z m 3.98e-4,-0.3794 h -0.950462 l -6.92e-4,-0.31693 h 0.951551 z m 0.598185,-1.43921 c -0.138553,0.15806 -0.359802,0.47636 -0.500931,0.80527 h -1.144772 c -0.141227,-0.329 -0.362378,-0.64721 -0.500932,-0.80527 -0.229073,-0.26127 -0.351582,-0.59255 -0.352374,-0.93769 -0.0018,-0.76249 0.597987,-1.42614 1.425643,-1.42614 0.786356,0 1.426134,0.63978 1.426134,1.42614 0,0.34514 -0.125281,0.67821 -0.352768,0.93769 z m -1.073366,-2.04691 c -0.611557,0 -1.109219,0.49767 -1.109219,1.10922 0,0.0876 0.07091,0.15846 0.15846,0.15846 0.08754,0 0.15846,-0.0709 0.15846,-0.15846 0,-0.43685 0.355345,-0.79229 0.792299,-0.79229 0.08754,0 0.158459,-0.071 0.158459,-0.15847 0,-0.0876 -0.07091,-0.15846 -0.158459,-0.15846 z"
             inkscape:connector-curvature="0" />
          <path
             transform="matrix(0.26458333,0,0,0.26458333,95.883923,157.71862)"
             inkscape:connector-curvature="0"
             id="path852"
             d="M 4.3787909,13.207841 C 4.2963964,13.018734 4.0640959,12.55543 3.9339985,12.320741 3.5344031,11.599892 3.0554996,10.899231 2.5526165,10.299707 2.1893673,9.8666507 2.0004725,9.586474 1.7864424,9.1632853 1.375426,8.3506078 1.1911273,7.5183742 1.2154687,6.5849523 1.2285477,6.0834102 1.2867055,5.6956516 1.4170331,5.2410523 1.9877334,3.2503771 3.6304372,1.776032 5.6536817,1.4386129 c 0.3359906,-0.056034 0.528914,-0.070887 0.9233426,-0.071091 0.5283097,-2.732e-4 0.9005238,0.046014 1.3810679,0.1717443 1.3497349,0.3531469 2.5378628,1.2510367 3.2588498,2.4627713 1.051367,1.7669902 0.996942,3.9849173 -0.139917,5.701903 -0.137395,0.2075068 -0.297613,0.4161405 -0.505882,0.6587545 -0.397389,0.46292 -0.929851,1.244599 -1.3077361,1.919819 -0.1231957,0.220131 -0.3982487,0.766729 -0.4696041,0.933219 l -0.045662,0.10654 H 6.588395 4.4286489 Z M 3.2116744,7.3052621 C 3.3703506,7.2466996 3.4997516,7.1172636 3.5596371,6.9572052 3.5818775,6.8977625 3.5942566,6.8129135 3.6017369,6.6686439 3.642729,5.8780593 3.9100512,5.2359132 4.4273257,4.685462 4.958611,4.1201015 5.7784681,3.7583384 6.5303031,3.7575202 6.7645013,3.7572661 6.9469186,3.6745242 7.0699541,3.5127445 7.3285967,3.1726545 7.1513732,2.6709976 6.7348606,2.5642137 6.5423579,2.5148606 6.0010425,2.5635761 5.5721692,2.6688499 5.0049403,2.8080852 4.4140454,3.1033025 3.9411575,3.4837202 3.5047821,3.8347653 3.1055657,4.3312019 2.84529,4.8464615 2.5492143,5.4325934 2.4046511,6.0105049 2.4030351,6.6144377 l -7.819e-4,0.2922067 0.051296,0.1043189 c 0.1370694,0.2787549 0.460282,0.4042238 0.7581252,0.2942988 z"
             style="opacity:1;fill:#fce100;fill-opacity:1;fill-rule:evenodd;stroke:none;stroke-width:0.03156727;stroke-linejoin:miter;stroke-miterlimit:4;stroke-dasharray:none;stroke-dashoffset:0;stroke-opacity:1;paint-order:fill markers stroke" />
          <path
             inkscape:connector-curvature="0"
             id="path854"
             d="m 97.145366,161.7204 v -0.15751 h 0.481061 0.48106 v 0.15751 0.1575 h -0.48106 -0.481061 z"
             style="opacity:1;fill:#69797e;fill-opacity:1;fill-rule:evenodd;stroke:#000000;stroke-width:0.01702837;stroke-linejoin:miter;stroke-miterlimit:4;stroke-dasharray:none;stroke-dashoffset:0;stroke-opacity:1;paint-order:fill markers stroke" />
          <path
             inkscape:connector-curvature="0"
             id="path856"
             d="m 97.228519,162.39035 c -0.06768,-0.10434 -0.08314,-0.13418 -0.08314,-0.16045 v -0.0322 h 0.481774 0.48177 v 0.028 c 0,0.0209 -0.02177,0.0613 -0.08651,0.16063 l -0.0865,0.13269 -0.312128,-1.9e-4 -0.312128,-1.8e-4 z"
             style="opacity:1;fill:#69797e;fill-opacity:1;fill-rule:evenodd;stroke:#000000;stroke-width:0.01720922;stroke-linejoin:miter;stroke-miterlimit:4;stroke-dasharray:none;stroke-dashoffset:0;stroke-opacity:1;paint-order:fill markers stroke" />
          <path
             transform="matrix(0.26458333,0,0,0.26458333,95.883923,157.71862)"
             inkscape:connector-curvature="0"
             id="path862"
             d="M 2.8898293,7.3302427 C 2.6695047,7.2885959 2.497768,7.1368644 2.4242046,6.9188573 L 2.4083599,6.8719009 2.4085783,6.6454058 C 2.4088106,6.4044322 2.4127606,6.3447014 2.4419884,6.1401935 2.5614257,5.3044876 2.9405316,4.5163844 3.5249459,3.8888901 4.2970686,3.0598507 5.3674336,2.5785744 6.4880346,2.5565743 c 0.1468748,-0.00288 0.1613061,-0.00229 0.2150186,0.00886 0.2366295,0.0491 0.4136713,0.2233784 0.4688959,0.4615775 0.0064,0.027594 0.00886,0.063985 0.00861,0.1270583 -3.111e-4,0.077224 -0.0022,0.095366 -0.014955,0.143631 -0.048968,0.1853035 -0.1904004,0.3430217 -0.3668731,0.4091195 -0.079558,0.029799 -0.1222497,0.03604 -0.2830744,0.041382 -0.080516,0.00267 -0.1737383,0.0075 -0.2071602,0.010733 C 5.5935423,3.8279977 4.9408707,4.1413398 4.4401461,4.6559103 4.0700455,5.0362447 3.8087785,5.5035984 3.6815545,6.0128767 3.6263193,6.2339834 3.601752,6.4144942 3.5932123,6.6619786 3.5879305,6.8150452 3.5840345,6.8500673 3.5650943,6.9147332 3.5298453,7.0350808 3.4434436,7.155189 3.3383794,7.2298926 3.2875497,7.266034 3.206073,7.3034617 3.1418581,7.3201683 3.0729195,7.3381036 2.9561168,7.3427726 2.8898293,7.3302427 Z"
             style="opacity:1;fill:#ffffff;fill-opacity:1;fill-rule:evenodd;stroke:#000000;stroke-width:0.37795275;stroke-linejoin:miter;stroke-miterlimit:4;stroke-dasharray:none;stroke-dashoffset:0;stroke-opacity:1;paint-order:fill markers stroke" />
        </g>
      </g>
      <circle
         r="6.0135641"
         cy="19.09124"
         cx="8.6312189"
         id="path1468"
         style="opacity:1;fill:none;fill-opacity:1;fill-rule:evenodd;stroke:#000000;stroke-width:0.5;stroke-linecap:round;stroke-linejoin:miter;stroke-miterlimit:4;stroke-dasharray:none;stroke-opacity:1;paint-order:fill markers stroke" />
    </g>
  </g>
</svg>
