<?xml version="1.0" encoding="UTF-8" standalone="no"?>
<!-- Generator: Adobe Illustrator 19.0.0, SVG Export Plug-In . SVG Version: 6.00 Build 0)  -->

<svg
   xmlns:dc="http://purl.org/dc/elements/1.1/"
   xmlns:cc="http://creativecommons.org/ns#"
   xmlns:rdf="http://www.w3.org/1999/02/22-rdf-syntax-ns#"
   xmlns:svg="http://www.w3.org/2000/svg"
   xmlns="http://www.w3.org/2000/svg"
   xmlns:sodipodi="http://sodipodi.sourceforge.net/DTD/sodipodi-0.dtd"
   xmlns:inkscape="http://www.inkscape.org/namespaces/inkscape"
   version="1.1"
   id="Laag_1"
   x="0px"
   y="0px"
   viewBox="360 181.9 1248.1 460.29999"
   xml:space="preserve"
   sodipodi:docname="Pennions Text FatLined2.svg"
   width="1248.1"
   height="460.29999"
   inkscape:version="0.92.2 (5c3e80d, 2017-08-06)"><metadata
     id="metadata37"><rdf:RDF><cc:Work
         rdf:about=""><dc:format>image/svg+xml</dc:format><dc:type
           rdf:resource="http://purl.org/dc/dcmitype/StillImage" /><dc:title></dc:title></cc:Work></rdf:RDF></metadata><defs
     id="defs35" /><sodipodi:namedview
     pagecolor="#ffffff"
     bordercolor="#666666"
     borderopacity="1"
     objecttolerance="10"
     gridtolerance="10"
     guidetolerance="10"
     inkscape:pageopacity="0"
     inkscape:pageshadow="2"
     inkscape:window-width="1920"
     inkscape:window-height="1017"
     id="namedview33"
     showgrid="false"
     fit-margin-top="0"
     fit-margin-left="0"
     fit-margin-right="0"
     fit-margin-bottom="0"
     inkscape:zoom="0.92401216"
     inkscape:cx="258.47414"
     inkscape:cy="194.50391"
     inkscape:window-x="1272"
     inkscape:window-y="-8"
     inkscape:window-maximized="1"
     inkscape:current-layer="Laag_1" /><style
     type="text/css"
     id="style2">
	.st0{fill:#010202;}
	.st1{fill:#010202;stroke:#000000;stroke-width:7;stroke-miterlimit:10;}
	.st2{fill:#FFFFFF;}
</style><path
     id="XMLID_1764_"
     d="m 1155.8,216.9 c -1.3,-5.4 -3.4,-10.3 -6.1,-14.6 -3.1,-5 -7.2,-9.2 -11.8,-12.4 -4.8,-3.3 -10.3,-5.6 -15.7,-6.7 l -0.8,-0.2 c -0.2,0 -0.4,-0.1 -0.5,-0.1 l -2.7,-0.4 c -1.2,-0.2 -2.7,-0.4 -4.3,-0.4 l -3.5,-0.2 c -0.2,0 -0.3,0 -0.5,0 -1.3,0 -2.6,0.1 -3.8,0.2 l -1.9,0.1 c -0.6,0 -1,0.1 -1.5,0.2 l -4.7,0.6 c -0.1,0 -0.2,0 -0.3,0.1 h -0.1 c -0.2,0 -0.3,0.1 -0.5,0.1 l -2.4,0.5 c -0.3,0.1 -0.7,0.1 -1,0.2 -0.8,0.2 -1.8,0.4 -2.8,0.7 -5.2,1.4 -10.3,3.5 -14.9,6.4 -5,3 -9.4,7.1 -12.7,11.8 -3.2,4.5 -5.6,9.6 -7.1,15.2 -2.3,8.9 -2.4,18.3 -0.3,28.9 1.6,7.8 4.4,15.6 8.5,23.2 2,3.7 4.1,6.8 6.3,9.5 1.2,1.5 2.5,2.9 4,4.4 0,0 0.1,0.1 0.1,0.1 0.3,0.2 0.5,0.5 0.8,0.7 l 0.9,0.8 c 0.1,0.1 0.2,0.2 0.3,0.2 0.2,0.2 0.5,0.4 0.9,0.7 l 1.7,1.2 c 0.1,0.1 0.2,0.1 0.3,0.2 2.3,1.5 2.8,2.6 3.1,4.1 0.2,0.9 0.4,2 0.5,3 -0.9,0.4 -1.7,0.9 -2.3,1.5 -3.3,3 -4.8,7 -4,10.8 0.1,0.7 0.3,1.4 0.6,2 -0.4,1.8 -0.4,3.7 0.1,5.4 0.3,1 0.6,1.9 1.1,2.8 0,0.5 0.1,1 0.2,1.4 0.9,4.3 4,7.7 8.4,9.1 l 0.3,0.1 c 0.4,0.1 0.8,0.2 1.2,0.3 h 0.4 c 1.1,0.1 2.6,0.2 5,0.2 9.5,0 29,-1 30.6,-1.2 5.5,-0.7 8.7,-5.6 9.8,-9.7 0.4,-1.4 0.5,-2.8 0.5,-4.2 0.2,-0.7 0.4,-1.4 0.5,-2.1 0.2,-1.6 0.1,-3.2 -0.4,-4.8 0.9,-2.9 0.7,-6.3 -0.6,-9.4 -0.7,-1.8 -1.9,-3.3 -3.6,-4.4 0.1,-0.9 0.3,-1.8 0.5,-2.6 0,-0.1 0,-0.1 0,-0.2 0.1,-0.4 0.2,-0.8 0.3,-1.2 0.1,-0.3 0.1,-0.5 0.2,-0.8 0.1,-0.2 0.2,-0.5 0.2,-0.7 0.1,-0.5 0.3,-0.9 0.4,-1.2 0.1,-0.1 0.1,-0.3 0.2,-0.5 0.1,-0.4 0.4,-0.9 0.7,-1.5 v 0 c 0.1,-0.2 0.3,-0.4 0.4,-0.6 0.1,-0.1 0.2,-0.3 0.4,-0.4 l 0.7,-0.6 c 0.1,-0.1 0.2,-0.1 0.2,-0.2 l 1.2,-0.9 c 1.3,-0.9 2.4,-1.9 3.3,-2.8 0.3,-0.3 0.6,-0.6 1,-0.9 0.1,-0.1 0.3,-0.2 0.4,-0.4 2.8,-3 5.2,-6.1 7.1,-9.3 4.1,-6.9 7,-14.8 8.5,-23.4 1.4,-9.4 1.2,-18.7 -1,-27.7 z"
     inkscape:connector-curvature="0" /><path
     id="XMLID_1749_"
     class="st0"
     d="m 1142.5,242.3 c 0.6,-3.5 0.9,-7.1 0.9,-10.8 0,-3.7 -0.6,-7.4 -1.5,-11 -1.8,-7.2 -6.1,-13.9 -12.4,-17.7 -0.8,-0.5 -1.5,-1 -2.4,-1.3 l -1.3,-0.6 c -0.4,-0.2 -0.8,-0.4 -1.3,-0.5 l -2.7,-0.9 -2.8,-0.6 -0.7,-0.1 -0.7,-0.1 -1.4,-0.1 c -1,-0.1 -1.9,-0.2 -2.9,-0.2 h -3 l -2.9,0.3 -1.4,0.1 c -0.5,0 -1.1,0.2 -1.6,0.2 l -3.3,0.5 -0.6,0.1 c 0,0 0,0 -0.1,0 h -0.1 -0.2 l -0.4,0.1 -1.5,0.4 c -1,0.3 -2,0.4 -2.9,0.8 -3.8,1.1 -7.3,2.7 -10.4,4.7 -6.3,3.9 -10.3,9.9 -12.1,16.7 -1.8,6.8 -1.5,14.2 -0.2,21 1.3,6.8 3.7,13.1 6.4,18.5 1.4,2.7 2.9,5.1 4.5,7.2 0.8,1 1.6,2 2.4,2.8 l 0.5,0.4 0.2,0.2 c 0.1,0.1 0.1,0.1 0.3,0.3 0.5,0.4 1,0.7 1.4,1.1 2.7,1.8 5,4.1 6.7,6.7 1.7,2.6 2.6,5.3 3.1,7.6 0.5,2.2 0.6,4.1 0.7,5.6 1.6,-14 2.9,-32.1 2.3,-44.2 -4.8,-0.4 -8.8,-1.1 -10,-2 -2.4,-1.7 -4.2,-5.9 -3,-9.3 0.7,-2 2.9,-5.4 10.2,-5.1 0.8,0 2.1,0.3 3.2,1.6 1.7,1.9 2.6,6.1 3.1,11.4 3.2,0.1 6.7,0.2 9.7,0 1.8,-12.6 3.6,-13.3 4.8,-13.7 2.5,-0.9 4.9,0 6.4,2.3 2.2,3.3 2.6,9.7 -0.2,12.5 -1.1,1.2 -4.1,1.9 -7.8,2.3 -1.4,11.9 -2.6,29.8 -3.1,46.9 v 0 c 0,0 0,-0.1 0,-0.1 0.3,-2.2 0.6,-5.4 1.7,-9.5 0.2,-1 0.6,-2.1 1,-3.2 0.4,-1.1 0.8,-2.3 1.4,-3.5 0.5,-1.2 1.3,-2.5 2,-3.8 0.4,-0.6 0.9,-1.3 1.4,-1.9 0.6,-0.7 1.3,-1.4 2,-2.1 l 0.3,-0.3 0.2,-0.2 0.4,-0.3 c 0.3,-0.2 0.5,-0.4 0.8,-0.6 0.6,-0.4 1.2,-0.9 1.8,-1.3 1,-0.6 1.9,-1.6 2.9,-2.4 1.8,-1.9 3.6,-4.1 5.2,-6.6 3.3,-5 5.8,-11.4 7,-18.3 z"
     inkscape:connector-curvature="0"
     style="fill:#010202" /><path
     id="XMLID_1756_"
     d="m 1117.9,300.8 h -7.7 l 0.1,-4.4 c 0.5,-17.3 1.6,-34.2 3,-45.9 -2.4,0.1 -5,0.1 -7.7,0 0.6,15.7 -1.7,37.4 -2.4,43.8 l -8.5,-0.2 c -0.1,-1.4 -0.2,-3.1 -0.7,-5.1 -0.5,-2.3 -1.3,-4.4 -2.5,-6.2 -1.3,-2 -3.2,-3.9 -5.5,-5.5 l -0.2,-0.2 c -0.3,-0.2 -0.6,-0.4 -0.8,-0.7 l -0.6,-0.4 c -0.3,-0.3 -0.5,-0.4 -0.7,-0.6 l -0.8,-0.8 c -0.7,-0.7 -1.7,-1.8 -2.7,-3.1 -1.7,-2.3 -3.4,-4.9 -4.9,-7.8 -3.2,-6.2 -5.5,-13 -6.8,-19.7 -1.6,-8.1 -1.6,-16 0.2,-22.8 2.1,-8.1 7,-14.9 13.9,-19.2 3.4,-2.1 7.2,-3.9 11.3,-5.1 0.8,-0.3 1.6,-0.5 2.3,-0.6 0.3,-0.1 0.6,-0.1 0.9,-0.2 l 1.1,-0.3 0.1,-0.1 5.6,-0.9 c 0.5,-0.1 1.1,-0.2 1.6,-0.2 l 4.6,-0.4 h 2.9 c 1.2,-0.1 2.3,0.1 3.2,0.2 l 2.8,0.3 3.9,0.8 2.6,0.8 c 0.8,0.2 1.4,0.5 1.9,0.7 l 1.1,0.5 c 1,0.4 1.8,0.9 2.4,1.3 l 0.5,0.3 c 6.9,4.2 12.2,11.6 14.4,20.3 1,3.8 1.6,7.9 1.7,12 0.1,3.5 -0.2,7.3 -0.9,11.6 v 0 c -1.2,7.2 -3.8,14.1 -7.4,19.9 -1.6,2.6 -3.5,5 -5.8,7.4 l -0.4,0.3 c -0.3,0.2 -0.6,0.5 -0.9,0.7 -0.7,0.6 -1.4,1.3 -2.3,1.9 l -1.7,1.2 c -0.2,0.2 -0.5,0.4 -0.7,0.5 l -0.5,0.4 c -0.5,0.5 -1.1,1.1 -1.6,1.7 -0.4,0.5 -0.8,1.1 -1.2,1.6 -0.7,1.1 -1.3,2.2 -1.7,3.1 l -0.1,0.2 c -0.3,0.7 -0.6,1.4 -0.9,2.2 -0.1,0.3 -0.2,0.6 -0.3,0.8 -0.1,0.3 -0.2,0.6 -0.3,0.9 -0.2,0.7 -0.4,1.4 -0.6,1.9 -1,3.9 -1.3,6.8 -1.6,9 l -0.1,0.7 z M 1091,270.4 c 2,1.4 3.9,3 5.4,4.8 0.5,-7.6 0.9,-15.3 0.8,-21.7 -6.1,-0.8 -7.7,-1.9 -8.3,-2.4 -3.7,-2.7 -6.5,-8.7 -4.6,-14.2 0.8,-2.5 3.9,-8.3 14.3,-7.9 2.4,0.1 4.6,1.2 6.3,3.2 1.7,2 2.9,5.2 3.6,10 0.8,0 1.5,0 2.3,0 1.7,-9.9 3.7,-12.4 7,-13.6 4.3,-1.6 8.8,0 11.5,4 3.1,4.8 3.6,13.3 -0.7,17.8 -1.4,1.4 -3.6,2.4 -7,3.1 -0.5,4.9 -1,10.7 -1.4,17 0.3,-0.3 0.7,-0.7 1,-1 l 0.9,-0.8 0.4,-0.3 c 0.2,-0.2 0.5,-0.4 0.8,-0.6 l 2.1,-1.5 c 0.3,-0.2 0.8,-0.6 1.3,-1.1 0.3,-0.3 0.6,-0.6 1,-0.8 1.8,-1.9 3.3,-3.8 4.5,-5.7 3,-4.9 5.2,-10.7 6.2,-16.9 0.6,-3.7 0.9,-7 0.8,-10 -0.1,-3.4 -0.5,-6.8 -1.4,-10 -1.7,-6.6 -5.5,-12.1 -10.5,-15.1 -0.2,-0.1 -0.4,-0.2 -0.6,-0.4 -0.5,-0.3 -0.9,-0.5 -1.2,-0.6 l -0.2,-0.1 -1.3,-0.6 c -0.3,-0.1 -0.5,-0.2 -0.6,-0.3 l -0.2,-0.1 -2.4,-0.8 -3.6,-0.7 -1.7,-0.2 c -0.8,-0.1 -1.5,-0.1 -2.1,-0.1 h -0.2 -2.8 l -4.1,0.4 c -0.3,0 -0.5,0.1 -0.8,0.1 l -3.1,0.5 -0.3,0.3 h -1.3 l -1.6,0.4 c -0.3,0.1 -0.7,0.2 -1.1,0.3 -0.5,0.1 -1,0.2 -1.3,0.3 l -0.3,0.1 c -3.4,1 -6.5,2.4 -9.4,4.2 -5.1,3.2 -8.7,8.1 -10.2,14.2 -1.5,5.6 -1.5,12.2 -0.1,19.1 1.1,5.9 3.2,11.9 6,17.4 1.3,2.4 2.7,4.6 4.1,6.6 0.7,0.9 1.5,1.8 2,2.3 l 1.1,1 c 0.4,0 0.7,0.2 1,0.4 z m 2.6,-26.4 c 0.5,0.2 2.5,0.8 6.7,1.2 -0.7,-5.9 -1.7,-7.4 -2,-7.7 -0.1,-0.1 -0.1,-0.1 -0.1,-0.2 -2,-0.1 -5.2,0.1 -5.9,2.2 -0.5,1.6 0.4,3.8 1.3,4.5 z m 27.4,-7.6 c -0.3,0.7 -1.2,2.8 -2.1,8.8 2.4,-0.4 3.3,-0.8 3.6,-0.9 1,-1.2 0.9,-5.1 -0.4,-7.1 -0.5,-0.8 -0.9,-0.9 -1.1,-0.8 z"
     inkscape:connector-curvature="0" /><path
     id="XMLID_2200_"
     class="st1"
     d="m 1089.9,305.2 5,2.1 -4.8,3.2 c -0.2,0.1 -0.4,0.4 -0.6,0.6 l 6.7,0.5 -5.6,4.8 c 0,0 0,0 0,0.1 5.2,0.4 26.9,-0.7 31.7,-1 0.2,-0.3 0.4,-0.8 0.4,-1.1 l -3.9,-3 4.4,-1.8 c -0.2,-0.4 -0.6,-1 -1,-1.3 l -5.5,-4"
     inkscape:connector-curvature="0"
     style="fill:#010202;stroke:#000000;stroke-width:7;stroke-miterlimit:10" /><path
     id="XMLID_1126_"
     class="st2"
     d="m 1099,294.6 c -0.1,-1.5 -0.3,-3.4 -0.7,-5.6 -0.5,-2.3 -1.4,-5 -3.1,-7.6 -1.7,-2.6 -4.1,-4.9 -6.7,-6.7 -0.5,-0.4 -0.9,-0.7 -1.4,-1.1 -0.2,-0.1 -0.2,-0.2 -0.3,-0.3 l -0.2,-0.2 -0.5,-0.4 c -0.7,-0.8 -1.6,-1.7 -2.4,-2.8 -1.6,-2.1 -3.1,-4.5 -4.5,-7.2 -2.8,-5.4 -5.1,-11.7 -6.4,-18.5 -1.4,-6.8 -1.6,-14.1 0.2,-21 1.8,-6.8 5.8,-12.8 12.1,-16.7 3.1,-1.9 6.6,-3.5 10.4,-4.7 0.9,-0.3 1.9,-0.5 2.9,-0.8 l 1.5,-0.4 0.4,-0.1 h 0.2 0.1 c 0,0 0,0 0.1,0 l 0.6,-0.1 3.3,-0.5 c 0.5,-0.1 1.1,-0.2 1.6,-0.2 l 1.4,-0.1 2.9,-0.3 h 3 c 1,0 2,0.1 2.9,0.2 l 1.4,0.1 0.7,0.1 0.7,0.1 2.8,0.6 2.7,0.9 c 0.5,0.1 0.9,0.3 1.3,0.5 l 1.3,0.6 c 0.9,0.3 1.6,0.9 2.4,1.3 6.3,3.8 10.6,10.4 12.4,17.7 0.9,3.6 1.4,7.3 1.5,11 0.1,3.7 -0.3,7.3 -0.9,10.8 -1.2,7 -3.7,13.3 -6.8,18.4 -1.6,2.6 -3.4,4.7 -5.2,6.6 -1,0.8 -1.9,1.8 -2.9,2.4 -0.6,0.4 -1.2,0.9 -1.8,1.3 -0.3,0.2 -0.5,0.4 -0.8,0.6 l -0.4,0.3 -0.2,0.2 -0.3,0.3 c -0.7,0.7 -1.4,1.4 -2,2.1 -0.5,0.6 -0.9,1.3 -1.4,1.9 -0.8,1.3 -1.5,2.5 -2,3.8 -0.6,1.2 -1,2.4 -1.4,3.5 -0.3,1.1 -0.7,2.2 -1,3.2 -1.1,4.1 -1.4,7.3 -1.7,9.5 0,0 0,0.1 0,0.1 v 0"
     inkscape:connector-curvature="0"
     style="fill:#ffffff" /><path
     id="XMLID_2197_"
     class="st0"
     d="m 1553.1,434.9 v 0 l 0.3,-0.3 c 0.4,-0.4 0.5,-0.5 0.8,-0.8 0.3,-0.3 0.5,-0.6 0.7,-0.9 1.9,-2.3 3.2,-5.2 3.4,-7.9 0.2,-2.6 -0.7,-4.9 -2.7,-6.8 -1,-0.9 -2.3,-1.7 -3.6,-2.3 -0.4,-0.2 -0.9,-0.4 -1.2,-0.5 -0.4,-0.1 -0.7,-0.3 -1.1,-0.4 -0.8,-0.3 -1.6,-0.5 -2.4,-0.8 -3.4,-0.9 -7,-1.6 -10.7,-2.1 -3.7,-0.6 -7.4,-1 -11.1,-1.5 -7.5,-0.9 -15.1,-1.8 -22.8,-3.5 -1.9,-0.4 -3.9,-0.9 -5.8,-1.6 -1,-0.3 -1.9,-0.6 -2.9,-1 -0.5,-0.2 -1,-0.4 -1.5,-0.6 l -0.4,-0.2 -0.2,-0.1 c 0,0 0,0 0,0 -0.1,0 -0.2,-0.1 -0.2,-0.1 h -0.1 l -0.7,-0.3 -1,-0.6 c -0.3,-0.2 -0.5,-0.4 -0.8,-0.6 -0.5,-0.4 -1,-0.8 -1.4,-1.2 -0.9,-0.8 -1.7,-1.7 -2.4,-2.5 -1.4,-1.7 -2.6,-3.5 -3.6,-5.4 -2,-3.7 -3.4,-7.5 -4.5,-11.4 -1.1,-3.9 -1.8,-7.9 -2.2,-11.9 -0.4,-4 -0.5,-8 -0.2,-12.1 0.3,-4 1,-8.1 2.2,-12 1.2,-3.9 2.8,-7.8 5,-11.4 2.2,-3.6 5,-6.9 8.3,-9.6 3.3,-2.7 7,-4.9 10.9,-6.4 3.6,-1.4 7.7,-2.5 11.5,-3.4 7.7,-1.7 15.4,-2.5 23.1,-3 7.7,-0.4 15.4,-0.5 23,-0.3 7.6,0.2 15.3,0.6 22.9,1.2 7.6,0.6 15.2,1.4 22.8,2.4 l 3.6,0.5 -0.4,30.8 -0.1,4.3 -4.1,-0.5 c -7.2,-0.4 -14.4,-0.6 -21.6,-0.8 -7.2,-0.1 -14.4,-0.1 -21.4,0.3 -3.5,0.2 -7,0.5 -10.4,0.9 -1.7,0.2 -3.4,0.5 -5,0.8 l -0.3,0.1 h -0.1 -0.2 l -0.7,0.2 c -0.4,0.1 -0.6,0.1 -0.9,0.3 -0.7,0.2 -1.3,0.5 -1.9,0.8 -2.5,1.2 -4.6,2.9 -6.3,5 -1.7,2.1 -2.8,4.7 -3.2,7.3 -0.4,2.6 -0.1,5.1 0.9,6.9 1,1.9 2.7,3.3 5.1,4.2 0.6,0.2 1.2,0.4 1.9,0.6 0.3,0.1 0.7,0.1 1,0.2 l 0.5,0.1 0.7,0.1 5.5,0.7 c 3.7,0.5 7.4,1.1 11.1,1.8 7.4,1.5 14.8,3.5 21.9,6.6 3.6,1.6 7,3.5 10.3,5.8 3.2,2.3 6.2,5.1 8.7,8.3 2.5,3.2 4.4,6.8 5.8,10.6 1.3,3.8 2.1,7.7 2.3,11.6 0.1,1 0.1,2 0.1,2.9 v 0.7 0.7 1.4 c -0.1,2 -0.2,3.9 -0.5,5.8 -0.5,3.9 -1.4,7.7 -3,11.4 -1.5,3.7 -3.6,7.2 -6.1,10.3 -2.6,3.1 -5.6,5.8 -8.8,8 -6.6,4.5 -13.9,7.2 -21.4,8.9 -7.4,1.7 -14.9,2.5 -22.5,2.8 l -11,0.3 c -3.7,0.1 -7.3,0.1 -11,0.1 -7.3,0 -14.7,0.1 -22,0 l -22,-0.1 v 0 l -5.7,-0.2 0.2,-5.7 1.1,-27.9 0.4,-5.8 5.6,0.4 c 7.4,0.5 15,0.7 22.5,1 7.5,0.2 15,0.2 22.5,0.1 3.7,-0.1 7.4,-0.2 11.1,-0.4 3.7,-0.2 7.3,-0.6 10.8,-1.1 1.7,-0.3 3.4,-0.7 4.6,-1.1 0.7,0 0.9,-0.1 1,-0.1 0,0 0.1,0 0,0 0.1,0 0.1,0 0,0 z"
     inkscape:connector-curvature="0"
     style="fill:#010202" /><path
     id="XMLID_2195_"
     class="st0"
     d="m 1455.7,395.5 c 0,5.3 0,10.5 -0.1,15.7 -0.1,10.5 -0.5,20.9 -0.9,31.3 -0.4,10.4 -0.9,20.8 -1.5,31.3 l -0.6,5.3 -4.8,-0.3 -32.7,-1.9 -3,0.3 -0.5,-3.6 c -0.4,-2.9 -0.7,-5.8 -1.1,-8.7 l -0.9,-8.7 c -0.6,-5.8 -1.2,-11.7 -1.7,-17.5 l -1.5,-17.5 c -0.5,-5.8 -0.9,-11.7 -1.4,-17.5 l -1.2,-17.4 c -0.4,-5.3 -1.4,-10.4 -3.2,-14.5 -1,-1.9 -2.1,-3.6 -3.4,-4.9 -1.3,-1.4 -3,-2.4 -4.9,-3.2 l -0.7,-0.3 -0.8,-0.3 c -0.5,-0.2 -1,-0.4 -1.6,-0.5 l -1.7,-0.4 -1.7,-0.3 c -0.3,-0.1 -0.5,-0.1 -0.9,-0.2 l -1.1,-0.1 -1.1,-0.1 -0.5,-0.1 h -0.1 -0.2 c -0.5,0 -1,-0.1 -1.5,-0.1 -0.5,0 -1.1,0 -1.6,0 -2.2,0.1 -4.3,0.5 -6.4,1.3 -0.5,0.1 -1,0.4 -1.5,0.6 l -0.7,0.3 c -0.2,0.1 -0.5,0.3 -0.7,0.4 l -1.4,0.8 -1.3,0.9 c -3.5,2.5 -6,6.3 -8,10.8 l -0.7,1.7 c -0.2,0.6 -0.5,1.1 -0.6,1.7 -0.3,1.1 -0.7,2.2 -1,3.4 l -0.8,4.3 -0.2,1.1 v 0.1 0.1 l -0.1,0.5 -0.3,2.1 c -0.7,5.6 -1.2,11.3 -1.7,17 -0.2,2.9 -0.4,5.8 -0.6,8.6 l -0.5,8.7 c -0.4,5.8 -0.6,11.6 -0.9,17.4 l -1.6,35 0.1,3.9 -3.8,-0.3 -45.3,-2.9 v 0 l -3.2,-0.2 -0.1,-3.2 -5.4,-166.2 46,-4.2 3.7,-0.3 0.2,3.6 v 0 l 1.2,18.9 c 0.6,-0.6 1.1,-1.2 1.7,-1.8 1.1,-0.9 2.1,-1.9 3.2,-2.8 4.4,-3.6 9.3,-6.4 14.5,-8.4 1.3,-0.5 2.6,-0.9 3.9,-1.4 1.3,-0.5 2.7,-0.8 4,-1.1 l 2,-0.5 c 0.7,-0.2 1.3,-0.3 2.1,-0.4 l 4.2,-0.6 c 1.4,-0.3 2.7,-0.3 4,-0.4 l 3.9,-0.3 h 0.3 0.1 0.3 0.5 1 2.1 c 1.4,0 2.8,0.1 4.2,0.2 5.5,0.4 11.1,1.5 16.4,3.5 5.3,1.9 10.4,4.7 14.9,8.2 4.5,3.5 8.4,7.7 11.7,12.2 3.3,4.5 6,9.4 8.3,14.4 2.3,5 4,10.2 5.4,15.5 1.4,5.3 2.5,10.6 3.1,16 0.1,1.4 0.3,2.9 0.3,4.2 l 0.2,4 c 0.1,2.5 0.2,5.1 0.2,7.8 z"
     inkscape:connector-curvature="0"
     style="fill:#010202" /><path
     id="XMLID_2193_"
     class="st0"
     d="m 1279.3,388.2 c 1.3,6.6 1.6,13.3 1.3,20 -0.4,6.7 -1.5,13.4 -3.5,19.8 -1.8,6.5 -4.5,12.8 -8,18.5 -3.5,5.8 -7.9,11 -12.9,15.5 -10,9 -22.3,15 -34.9,17.6 -12.6,2.6 -25.6,2 -37.1,-2.1 -5.7,-2 -11.1,-4.8 -15.7,-8.3 -4.7,-3.4 -8.6,-7.5 -11.9,-11.8 -3.3,-4.3 -5.8,-8.8 -7.7,-13.2 -1.9,-4.4 -3.3,-8.8 -4.3,-13 -1.9,-8.3 -2.3,-15.6 -2.3,-21.6 0,-6 0.5,-10.6 0.8,-13.7 0.2,-1.6 0.3,-2.8 0.4,-3.6 0.1,-0.8 0.2,-1.2 0.2,-1.2 v -0.2 c 0,0 0.1,-0.4 0.2,-1.2 0.1,-0.4 0.2,-0.9 0.3,-1.4 0.2,-0.7 0.3,-1.5 0.6,-2.4 0.2,-0.9 0.5,-1.8 0.8,-2.9 0.3,-1 0.7,-2.1 1.2,-3.3 1,-2.3 2.2,-5 3.9,-7.7 3.3,-5.5 8.4,-11.5 15.4,-16.6 6.9,-5.2 15.6,-9.6 25.6,-12.4 5,-1.4 10.3,-2.4 15.9,-2.9 5.5,-0.5 11.3,-0.5 17.2,0.2 5.9,0.7 11.9,2 17.8,4.3 2.9,1.1 5.9,2.5 8.7,4 2.8,1.6 5.5,3.4 8.1,5.5 5.2,4.1 9.6,9.3 13,15.1 1.7,2.9 3.1,6 4.3,9.1 1,3.4 2,6.6 2.6,9.9 z"
     inkscape:connector-curvature="0"
     style="fill:#010202" /><path
     id="XMLID_2192_"
     class="st2"
     d="m 1250.9,385 c 0.6,3.1 0.9,6.3 0.4,9.2 0,0.4 -0.1,0.7 -0.2,1.1 l -0.2,0.9 -0.2,0.6 -0.1,0.3 v 0.1 c 0,0 0,0 0,0 v 0.1 c -0.1,0.3 -0.3,0.7 -0.5,1 -0.7,1.4 -1.6,2.7 -2.5,4.1 -3.8,5.3 -8.6,10 -13.8,13.7 -5.2,3.7 -11.1,6.2 -16.9,6.6 -2.9,0.2 -5.7,-0.1 -8.2,-0.9 l -1.1,-0.4 h -0.1 v 0 l -0.2,-0.1 -0.5,-0.2 c -0.7,-0.3 -1.3,-0.6 -2,-0.8 -1.3,-0.5 -2.5,-1.2 -3.8,-1.8 -4.8,-2.6 -8.6,-6.1 -10.9,-9.9 -2.3,-3.8 -3.1,-8 -3.1,-11.7 0,-0.9 0,-1.9 0,-2.7 0.1,-0.9 0.2,-1.7 0.3,-2.6 0.1,-0.8 0.2,-1.6 0.4,-2.4 0.2,-0.7 0.3,-1.5 0.4,-2.2 0.4,-1.3 0.7,-2.5 1,-3.5 0.3,-1 0.7,-2 0.9,-2.8 0.4,-1.3 0.7,-2 0.8,-2.3 0,0 0.1,-0.2 0.2,-0.4 0.1,-0.3 0.3,-0.8 0.6,-1.4 0.6,-1.2 1.8,-3 3.5,-5.1 1.8,-2.1 4.2,-4.4 7.4,-6.6 3.2,-2.2 7.1,-4.2 11.7,-5.3 1.1,-0.3 2.3,-0.4 3.5,-0.7 1.2,-0.1 2.5,-0.2 3.7,-0.2 0.6,0 1.2,0 1.8,0.1 0.6,0 1.2,0 2,0.1 0.7,0.1 1.4,0.2 2.2,0.3 l 0.5,0.1 h 0.3 v 0 h 0.1 l 1,0.2 c 5.1,1.2 10.1,4.3 13.9,8.9 3.7,4.7 6.5,10.5 7.7,16.6 z"
     inkscape:connector-curvature="0"
     style="fill:#ffffff" /><path
     id="XMLID_2190_"
     class="st0"
     d="m 1240.7,389.9 v 0.8 0.8 l -0.1,0.8 c 0,0.3 -0.1,0.6 -0.1,1 l -0.2,1 c -0.1,0.3 -0.1,0.5 -0.2,0.7 l -0.1,0.3 -0.1,0.2 v 0.1 c -0.1,0.1 -0.1,0.2 -0.1,0.2 v 0 0.1 l -0.4,0.8 c -0.2,0.5 -0.5,1 -0.8,1.4 -0.3,0.5 -0.6,0.9 -0.9,1.3 -1.2,1.7 -2.5,3.2 -3.9,4.6 -1.4,1.4 -3,2.7 -4.6,3.9 -0.8,0.5 -1.6,1.1 -2.6,1.6 -0.4,0.2 -0.9,0.5 -1.3,0.7 l -1.4,0.6 -0.7,0.3 -0.7,0.2 c -0.5,0.2 -1,0.3 -1.5,0.5 -0.5,0.1 -1,0.2 -1.5,0.3 -0.5,0.1 -1,0.2 -1.5,0.2 -1,0.1 -2.1,0.2 -3.2,0 -0.5,-0.1 -1.2,-0.1 -1.7,-0.2 -0.4,-0.1 -0.8,-0.2 -1.2,-0.3 l -0.6,-0.2 h -0.1 v 0 l -0.3,-0.1 -0.2,-0.1 -0.3,-0.1 c -0.4,-0.2 -0.8,-0.3 -1.3,-0.5 -0.8,-0.3 -1.7,-0.7 -2.5,-1.1 -3.2,-1.6 -6.1,-4 -8,-7 -1.9,-3 -2.5,-6.2 -2.7,-8.9 -0.1,-2.7 0.3,-4.9 0.7,-6.7 0.2,-0.9 0.4,-1.7 0.6,-2.4 0.2,-0.7 0.4,-1.1 0.5,-1.6 0.3,-0.8 0.5,-1.3 0.5,-1.3 v -0.1 c 0,0 0.1,-0.1 0.2,-0.4 0.1,-0.3 0.3,-0.7 0.6,-1.2 0.5,-1 1.4,-2.3 2.7,-3.7 1.3,-1.4 3,-2.9 5.2,-4.3 2.2,-1.4 4.9,-2.7 8.1,-3.4 0.8,-0.2 1.6,-0.3 2.5,-0.4 0.9,0 1.7,-0.1 2.6,-0.1 0.5,0 0.9,0.1 1.4,0.1 0.5,0 1,0.1 1.3,0.2 0.4,0.1 0.8,0.1 1.2,0.2 l 0.3,0.1 h 0.1 0.2 0.1 l 0.7,0.2 c 3.7,1 7.2,3.3 9.7,6.5 1.3,1.5 2.3,3.3 3.2,5.1 0.8,1.9 1.5,3.8 1.9,5.8 0.3,1.4 0.5,2.4 0.5,3.5 z"
     inkscape:connector-curvature="0"
     style="fill:#010202" /><path
     id="XMLID_2189_"
     class="st0"
     d="m 1243.4,394.3 c 0,0 0,0 0,0 z"
     inkscape:connector-curvature="0"
     style="fill:#010202" /><path
     id="XMLID_2188_"
     class="st2"
     d="m 1234.3,390.2 v 0.5 0.5 0.5 c 0,0.2 0,0.3 -0.1,0.4 0,0.1 0,0.2 0,0.4 0,0.2 -0.1,0.4 -0.2,0.6 l -0.1,0.3 v 0.1 l -0.2,0.5 c -0.1,0.3 -0.3,0.6 -0.5,0.9 -0.2,0.3 -0.4,0.6 -0.6,1 -0.9,1.3 -2,2.5 -3.1,3.6 -1.1,1.1 -2.4,2.1 -3.6,3 -0.7,0.4 -1.3,0.9 -2,1.2 -0.3,0.2 -0.7,0.4 -1,0.5 l -1,0.4 -0.5,0.2 -0.5,0.1 -1,0.3 c -0.3,0.1 -0.7,0.1 -1,0.2 -0.3,0.1 -0.7,0.1 -1,0.1 h -1 -0.2 -0.2 -0.4 c -0.3,0 -0.5,0 -0.8,-0.1 -0.4,-0.1 -0.8,-0.2 -1.1,-0.3 l -0.5,-0.1 h -0.1 l -0.2,-0.1 c -0.3,-0.1 -0.6,-0.3 -1,-0.4 -0.6,-0.3 -1.2,-0.6 -1.8,-0.9 -2.3,-1.3 -4,-2.9 -5,-4.6 -1,-1.7 -1.3,-3.5 -1.3,-5.3 -0.1,-1.7 0.3,-3.3 0.6,-4.6 0.2,-0.6 0.3,-1.2 0.5,-1.7 0.1,-0.5 0.3,-1 0.5,-1.4 0.2,-0.6 0.3,-1 0.4,-1.1 0,0 0,-0.1 0.1,-0.2 0.1,-0.1 0.1,-0.3 0.3,-0.6 0.3,-0.5 0.8,-1.3 1.6,-2.3 0.8,-1 2,-2.1 3.5,-3.1 1.5,-1 3.3,-2 5.4,-2.5 0.5,-0.1 1.1,-0.2 1.6,-0.3 0.6,0 1.2,-0.1 1.7,-0.1 0.3,0 0.5,0 0.8,0 0.3,0 0.5,0 0.9,0.1 0.4,0 0.7,0.1 1.1,0.2 h 0.3 0.1 l 0.4,0.1 c 2.3,0.6 4.6,1.9 6.4,4 0.9,1 1.7,2.3 2.4,3.6 0.6,1.3 1.1,2.7 1.4,4.2 -0.1,0.8 0,1.5 0,2.2 z"
     inkscape:connector-curvature="0"
     style="fill:#ffffff" /><path
     id="XMLID_2187_"
     class="st2"
     d="m 1208.2,425.1 c -1.4,3.6 -1.9,6.2 -4.8,13.3 -2.5,6.1 -3.3,9.7 -6.6,17.3 -1.7,3.7 -1,1.9 -2.9,5.6 -0.2,0.5 -0.5,0.8 -0.7,1.3 l -0.4,0.6 c 0,0 -0.1,0.1 -0.1,0.2 -0.3,0.1 -0.5,0.1 -0.9,0.2 -1.5,0.2 -3.5,0.1 -5.2,-0.3 -0.5,-0.1 -0.9,-0.2 -1.3,-0.4 l 0.5,-1.4 c 0.4,-1 0.7,-2 1.1,-3 1.5,-4 0.5,-2.3 2,-6.2 3,-7.7 3.7,-11.3 6.1,-17.5 2.7,-6.8 3.2,-9.2 4.6,-12.8 2.8,1 5.6,2.2 8.6,3.1 z"
     inkscape:connector-curvature="0"
     style="fill:#ffffff" /><path
     id="XMLID_2185_"
     class="st0"
     d="m 1131.2,345.4 v 4.1 l -0.1,127.3 v 3.9 l -4.1,0.3 -38,2.6 -5.7,0.4 v -5.9 -134.4 l 43.5,1.6 z"
     inkscape:connector-curvature="0"
     style="fill:#010202" /><path
     id="XMLID_2184_"
     class="st0"
     d="m 1131.2,277.7 v 0 c 0,0 0,0 0,0 z"
     inkscape:connector-curvature="0"
     style="fill:#010202" /><path
     id="XMLID_2183_"
     class="st2"
     d="m 1122.7,302.9 c 0,0 0.1,0 0,0 l -6.3,1.4 5.5,4 c 0.4,0.3 0.8,0.9 1,1.3 l -4.4,1.8 3.9,3 c 0,0.3 -0.2,0.7 -0.4,1.1 -4.8,0.3 -26.4,1.3 -31.7,1 0,0 0,0 0,-0.1 l 5.6,-4.8 -6.7,-0.5 c 0.2,-0.2 0.4,-0.4 0.6,-0.6 l 4.8,-3.2 -5,-2.1 c 7.1,-1.6 28,-3.3 33.1,-2.3 z"
     inkscape:connector-curvature="0"
     style="fill:#ffffff" /><path
     id="XMLID_2181_"
     class="st0"
     d="m 1067.7,387.5 c 0,2.7 0,5.3 0,8 -0.1,5.3 -0.3,10.5 -0.5,15.8 -0.3,5.2 -0.6,10.5 -0.9,15.7 l -1.2,15.6 c -0.4,5.2 -0.9,10.4 -1.5,15.6 -0.6,5.2 -1.1,10.4 -1.8,15.6 l -0.1,3.2 -3.4,0.1 -32.7,1.1 h -4.4 l -0.2,-4.4 -3.6,-70.1 -0.9,-17.5 c -0.3,-5.5 -1.3,-10.8 -3.2,-15.3 -1,-2.2 -2.3,-4.1 -3.8,-5.6 -1.5,-1.6 -3.5,-2.8 -5.6,-3.7 l -0.8,-0.4 -0.9,-0.3 c -0.6,-0.2 -1.1,-0.4 -1.8,-0.6 l -1.8,-0.5 c -0.6,-0.1 -1.2,-0.2 -1.8,-0.4 -0.3,-0.1 -0.6,-0.1 -0.9,-0.2 l -1.1,-0.1 -1.1,-0.1 -0.5,-0.1 h -0.1 v 0 h -0.2 c -1.1,-0.1 -2.3,-0.1 -3.5,0 -2.4,0.2 -4.8,0.6 -7,1.5 -0.6,0.2 -1.1,0.5 -1.6,0.7 l -0.8,0.4 c -0.3,0.1 -0.5,0.3 -0.8,0.5 l -1.5,0.9 -1.4,1.1 c -0.2,0.2 -0.5,0.3 -0.7,0.5 l -0.6,0.6 -1.3,1.2 -1.1,1.4 c -0.4,0.5 -0.8,0.9 -1.1,1.4 -1.4,2 -2.5,4.2 -3.5,6.6 l -0.7,1.8 c -0.2,0.6 -0.5,1.2 -0.6,1.8 l -0.9,3.6 -0.7,4.3 -0.2,1.1 v 0 0.3 0.5 l -0.2,2.1 c -0.6,5.6 -0.9,11.4 -1.2,17.1 -0.2,5.8 -0.4,11.6 -0.5,17.4 -0.1,5.8 -0.1,11.6 -0.1,17.4 0,5.8 0.1,11.6 0.2,17.4 0.1,5.8 0.3,11.6 0.5,17.4 l 0.3,6.9 -7,-0.4 -45.4,-2.6 -6.1,-0.4 -0.2,-6.1 -4.4,-168.7 48.2,-1.9 3.8,-0.1 0.2,3.4 v 0 l 1.1,18.2 c 0.5,-0.5 0.9,-1 1.3,-1.5 1,-1 2,-2 3.1,-3 4.3,-3.8 9.3,-6.7 14.5,-9 1.3,-0.5 2.7,-1 4,-1.5 1.3,-0.5 2.7,-0.9 4.1,-1.2 l 2.1,-0.6 c 0.7,-0.2 1.4,-0.4 2.1,-0.5 l 4.3,-0.8 c 1.5,-0.3 2.7,-0.4 4,-0.5 l 3.9,-0.4 h 0.1 0.3 0.1 0.3 0.5 1.1 2.1 c 1.4,0 2.8,0.1 4.3,0.1 5.7,0.4 11.5,1.4 17,3.4 5.5,2 10.8,4.9 15.5,8.5 4.7,3.6 8.7,7.9 12.1,12.6 1.7,2.3 3.2,4.8 4.7,7.2 1.4,2.5 2.7,5 3.8,7.6 2.3,5.1 4,10.5 5.4,15.8 1.4,5.4 2.3,10.8 2.9,16.3 0.1,1.4 0.2,2.9 0.3,4.3 z"
     inkscape:connector-curvature="0"
     style="fill:#010202" /><g
     id="XMLID_1761_"
     transform="translate(-50.9,-4.4)"><path
       id="XMLID_1762_"
       class="st0"
       d="m 928.7,392 -0.1,-4 c -0.1,-1.3 -0.2,-2.7 -0.3,-4.1 -0.5,-5.4 -1.5,-10.6 -2.6,-15.9 -1.1,-5.3 -2.7,-10.4 -4.7,-15.5 -2,-5.1 -4.4,-10.1 -7.4,-14.8 -3,-4.7 -6.7,-9.1 -11.1,-13 -4.4,-3.8 -9.4,-6.9 -14.9,-9.1 -5.4,-2.2 -11.2,-3.5 -16.9,-4.1 -1.4,-0.1 -2.9,-0.3 -4.3,-0.3 h -2.1 -1.1 -0.5 -0.3 -0.1 -0.4 l -3.9,0.3 c -1.3,0.1 -2.5,0.1 -4.1,0.4 l -4.4,0.7 c -0.7,0.1 -1.4,0.3 -2.1,0.5 l -2.1,0.5 c -1.4,0.4 -2.8,0.7 -4.1,1.2 -1.4,0.5 -2.7,1 -4.1,1.5 -5.3,2.3 -10.4,5.4 -14.7,9.4 -1.1,1 -2.1,2.1 -3.1,3.1 -0.3,0.4 -0.6,0.7 -0.9,1.1 l -1.1,-17.3 -0.2,-3.7 -3.7,0.5 -44.5,5.6 2.2,164.9 0.1,4.7 4.8,0.4 45.4,1.3 4,0.1 -0.3,-3.7 0.4,-17.5 c 0.2,-5.8 0.3,-11.6 0.5,-17.5 0.2,-5.8 0.4,-11.6 0.7,-17.4 0.3,-5.8 0.6,-11.6 1,-17.4 0.5,-5.7 1,-11.5 1.7,-17.1 l 0.3,-2.1 0.1,-0.5 v -0.1 -0.1 l 0.2,-1.1 0.8,-4.3 1,-3.5 c 0.1,-0.6 0.4,-1.2 0.6,-1.8 l 0.7,-1.7 c 2,-4.5 4.6,-8.5 8.3,-11.1 l 1.4,-1 1.5,-0.8 c 0.2,-0.1 0.5,-0.3 0.7,-0.4 l 0.8,-0.3 c 0.5,-0.2 1,-0.5 1.6,-0.6 2.1,-0.8 4.4,-1.2 6.6,-1.3 0.6,-0.1 1.1,0 1.7,0 0.6,0 1,0.1 1.6,0.1 h 0.2 0.1 l 0.5,0.1 1.1,0.1 1.1,0.2 c 0.3,0 0.6,0.1 0.9,0.2 0.6,0.1 1.2,0.2 1.7,0.4 l 1.8,0.5 c 0.6,0.1 1.1,0.4 1.7,0.5 l 0.8,0.3 0.8,0.3 c 2,0.9 3.7,2 5.1,3.4 1.4,1.4 2.5,3.2 3.4,5.2 1.8,4.2 2.7,9.3 3,14.7 l 1,17.4 1,17.5 1.1,17.5 1.3,17.5 0.7,8.8 0.7,8.7 0.4,5.1 4.8,-0.2 32.7,-0.7 4.3,-0.1 0.1,-4.1 c 0,-5.2 0,-10.5 0.1,-15.7 0.1,-5.2 0.1,-10.4 0.3,-15.6 l 0.6,-31.3 0.2,-15.7 c -0.1,-2.9 -0.1,-5.6 -0.1,-8.2 z"
       inkscape:connector-curvature="0"
       style="fill:#010202" /><path
       id="XMLID_2175_"
       class="st0"
       d="m 753.3,416.2 -5.1,2 c -4.9,1.9 -9.7,4 -14.5,6 l -7.1,3 c -2.4,1 -4.7,1.9 -7,2.8 l -2.3,0.7 -0.1,2.6 c 0,0.2 0,0.7 -0.1,1.1 0,0.4 -0.1,0.9 -0.2,1.3 -0.1,0.9 -0.4,1.7 -0.6,2.6 -0.5,1.7 -1.1,3.4 -1.9,4.9 -0.8,1.6 -1.8,3 -2.9,4.4 -1.1,1.4 -2.4,2.6 -3.7,3.7 -1.4,1.1 -2.8,2.1 -4.4,2.9 -1.6,0.8 -3.2,1.6 -4.9,2.1 -0.9,0.3 -1.7,0.6 -2.6,0.8 l -1.3,0.4 c -0.5,0.1 -0.9,0.2 -1.4,0.3 l -1.3,0.3 -1.4,0.2 c -0.9,0.1 -1.8,0.3 -2.8,0.3 -1.9,0.2 -3.8,0.2 -5.6,0.3 h -2.8 c -0.2,0 -0.5,0 -0.7,0 h -0.8 l -1.5,-0.1 c -1,-0.1 -1.8,-0.2 -2.8,-0.3 -0.9,-0.1 -1.9,-0.2 -2.8,-0.4 -1.8,-0.3 -3.6,-0.7 -5.4,-1.2 -3.5,-1 -6.7,-2.4 -9.3,-4.4 -1.3,-1 -2.4,-2.1 -3.2,-3.3 -0.1,-0.2 -0.2,-0.4 -0.3,-0.6 l 95.1,-46 3.1,-1.5 -0.5,-3.4 c -0.1,-0.8 -0.2,-1.4 -0.4,-2.1 l -0.4,-1.9 c -0.3,-1.3 -0.6,-2.5 -1,-3.8 -0.7,-2.5 -1.6,-5 -2.5,-7.4 -1.9,-4.9 -4.2,-9.6 -7.1,-14.1 -2.9,-4.5 -6.4,-8.7 -10.5,-12.3 -4.1,-3.6 -8.9,-6.7 -14.1,-8.8 -2.6,-1.1 -5.3,-1.9 -8,-2.5 -2.7,-0.6 -5.4,-1 -8.2,-1.2 -2.7,-0.2 -5.5,-0.2 -8.2,0 -2.7,0.2 -5.4,0.5 -8,0.9 -2.6,0.4 -5.2,1.1 -7.8,1.7 -1.3,0.3 -2.5,0.7 -3.8,1.1 l -3.7,1.2 c -1.2,0.5 -2.4,0.9 -3.7,1.4 -1.2,0.5 -2.4,1 -3.6,1.5 l -3.5,1.6 -3.5,1.7 -0.1,0.1 -1,0.5 -0.5,0.3 -0.6,0.3 -1.2,0.7 -1.1,0.7 c -1.5,0.9 -2.8,2 -4.2,3.1 -2.6,2.2 -5,4.5 -7.2,7 -4.3,5.1 -7.8,10.6 -10.7,16.3 -2.9,5.8 -5.2,11.7 -7,17.8 -1.8,6.1 -3.1,12.3 -4,18.6 -0.9,6.3 -1.3,12.6 -1.1,19 0.2,6.4 0.9,12.8 2.5,19.2 0.8,3.2 1.8,6.4 3.1,9.5 1.3,3.1 2.9,6.1 4.9,9 l 0.8,1.1 0.9,1.1 0.4,0.5 0.5,0.6 1.1,1.1 c 1.4,1.3 2.8,2.5 4.3,3.5 3,2 6.1,3.5 9.2,4.7 6.3,2.4 12.7,3.6 19.1,4.2 6.4,0.6 12.8,0.6 19.1,0.1 6.3,-0.5 12.6,-1.5 18.7,-3.1 6.2,-1.5 12.2,-3.6 18,-6.2 5.8,-2.7 11.4,-5.9 16.5,-9.9 5.1,-4 9.7,-8.8 13.4,-14.3 3.6,-5.5 6.3,-11.8 7.6,-18.3 0.6,-3.3 1,-6.5 1,-9.8 0,-3.3 -0.2,-6.5 -0.6,-9.7 z m -91.5,-32.3 c 0.4,-0.4 0.8,-0.7 1.1,-1.1 l 0.6,-0.5 c 0.2,-0.2 0.5,-0.4 0.7,-0.6 l 1.3,-1.1 1.4,-1 c 1.9,-1.3 3.8,-2.5 5.7,-3.6 3.9,-2.1 8.1,-3.7 12.3,-4.3 4.2,-0.6 8.5,-0.3 12.6,1 4.1,1.3 8,3.6 11.4,6.5 1.8,1.4 3.4,3 4.9,4.7 l -65.4,29.5 c 0.3,-2.2 0.7,-4.4 1.2,-6.5 1,-4.4 2.5,-8.6 4.5,-12.6 1,-2 2.1,-3.8 3.4,-5.6 1.4,-1.6 2.8,-3.3 4.3,-4.8 z"
       inkscape:connector-curvature="0"
       style="fill:#010202" /></g><path
     id="XMLID_2217_"
     class="st0"
     d="m 550.8,370.4 c -1,-4.2 -2.1,-8.4 -3.7,-12.5 -1.5,-4.1 -3.3,-8.1 -5.5,-12 -4.3,-7.7 -10,-14.7 -16.8,-20.4 -6.8,-5.6 -14.6,-10 -22.9,-12.7 -4.1,-1.4 -8.3,-2.5 -12.6,-3.2 -4.3,-0.7 -8.4,-1.2 -12.8,-1.4 -1.1,-0.1 -2.1,0 -3.1,-0.1 h -1.5 -0.2 -0.2 -0.1 -0.4 -0.8 c -1.1,0 -2.1,0.1 -3.2,0.1 l -3.2,0.3 c -4.3,0.4 -8.5,1.2 -12.7,2.4 -8.3,2.3 -16.3,6.3 -23,11.9 -3.3,2.8 -6.4,5.9 -9,9.4 -0.1,0.1 -0.2,0.3 -0.3,0.5 v -4.1 c 0,-5.4 0,-10.8 0,-16.2 v -3.2 h -3.2 -25.8 c -8.6,-0.1 -17.2,-0.1 -25.8,-0.3 l -3.5,-0.1 0.2,85 -0.1,81.5 -0.1,81.5 v 40.7 c 0,6.8 0,13.6 -0.1,20.4 l -0.3,20.4 -0.1,3.9 h 4.1 c 9,0 18,-0.2 27,-0.3 l 27,-0.4 4.3,-0.1 0.1,-4.4 2.1,-82.6 1.7,-69.1 c 3.4,2.6 6.9,4.9 10.7,6.9 1.9,1.1 4,1.9 6,2.9 1,0.4 2.1,0.8 3.1,1.2 1,0.4 2.1,0.8 3.1,1.1 l 3.2,0.9 1.6,0.5 c 0.5,0.1 1.1,0.2 1.6,0.4 2.2,0.4 4.3,1 6.6,1.2 2.3,0.3 4.7,0.7 6.6,0.7 l 3.1,0.1 h 0.8 0.4 0.1 0.4 0.2 1.7 c 4.5,-0.1 9.1,-0.7 13.5,-1.7 8.8,-2.1 17.1,-6 24.5,-11.2 3.7,-2.6 7.1,-5.4 10.3,-8.6 3.1,-3.1 6.1,-6.5 8.7,-10 5.2,-7.1 9.4,-14.9 12.6,-23 3.2,-8.1 5.3,-16.5 6.8,-25 0.7,-4.2 1.2,-8.5 1.5,-12.9 0.1,-2.1 0.2,-4.1 0.3,-6.2 l 0.1,-3.3 c 0,-1.1 0,-2.1 0,-3.2 -0.3,-8.6 -1.2,-17.2 -3,-25.7 z M 503.9,424 c -0.4,1 -0.8,2 -1.2,3 -3.5,7.8 -9.3,14.1 -16.3,17.9 -1.7,1 -3.6,1.7 -5.4,2.4 -1.8,0.6 -3.8,1.2 -5.6,1.5 l -0.3,0.1 -0.4,0.1 -0.8,0.1 -0.8,0.1 -0.4,0.1 c 0,0 -0.1,0 -0.1,0 h -0.2 c -1,0.1 -2.1,0.2 -3.1,0.3 -2,0.2 -4,0.2 -6,0.3 -3.9,0 -7.7,-0.4 -11.2,-1.2 -3.5,-0.8 -6.7,-2 -9.5,-3.6 -5.6,-3.2 -9.6,-7.9 -12,-12.8 -2.5,-4.9 -3.8,-9.7 -4.5,-13.7 -0.2,-1 -0.3,-2 -0.5,-2.9 -0.1,-0.9 -0.2,-1.8 -0.3,-2.6 -0.2,-1.6 -0.3,-2.9 -0.3,-4 -0.1,-2.3 -0.2,-3.6 -0.2,-3.6 0,-0.3 0,-1.4 0.1,-3.4 0.2,-2.2 0.4,-5.5 1.1,-9.6 0.4,-2 0.9,-4.3 1.6,-6.6 0.7,-2.4 1.6,-4.8 2.8,-7.4 2.4,-5 5.9,-10.3 11.1,-14.4 5.2,-4.2 12,-7.2 19.6,-8.6 1,-0.2 1.9,-0.3 2.8,-0.4 0.4,-0.1 1,-0.1 1.6,-0.2 h 0.4 0.1 c 0,0 0,0 0,0 h 0.1 0.7 c 1.9,-0.1 3.8,0 5.7,0.2 3.9,0.4 7.7,1.6 11.3,3.3 3.6,1.7 7,4.1 10,6.9 2.9,2.9 5.4,6.3 7.4,10.1 0.5,1 0.9,1.9 1.4,2.9 0.3,0.5 0.4,1 0.6,1.5 l 0.6,1.5 c 0.9,2.1 1.3,4.1 1.9,6.1 0.1,0.3 0.1,0.5 0.2,0.8 l 0.2,0.9 0.3,1.8 0.3,1.8 0.2,0.9 v 0.2 c 0,0 0,0 0,0 v 0.4 c 0.1,1.1 0.3,2.3 0.4,3.4 l 0.1,1.7 0.1,1.7 c 0.2,4.5 -0.1,9.1 -0.8,13.4 -0.4,2.2 -0.9,4.3 -1.5,6.4 -0.6,1.2 -1,2.2 -1.3,3.2 z"
     inkscape:connector-curvature="0"
     style="fill:#010202" /><path
     id="XMLID_44_"
     d="m 1145.3,220.4 c -2.2,-8.6 -7.3,-15.8 -14.1,-19.9 l -0.5,-0.3 c -0.7,-0.4 -1.4,-0.9 -2.3,-1.2 l -1.1,-0.5 c -0.5,-0.2 -1.1,-0.5 -1.8,-0.7 l -2.6,-0.8 -3.9,-0.8 -2.8,-0.3 c -0.9,-0.1 -2,-0.2 -3.2,-0.2 h -2.9 l -4.6,0.4 c -0.5,0 -1,0.1 -1.5,0.2 l -5.4,0.9 -0.1,0.1 -1.3,0.3 c -0.3,0.1 -0.6,0.1 -0.9,0.2 -0.7,0.2 -1.4,0.3 -2.2,0.6 -4,1.2 -7.8,2.9 -11.2,5 -6.8,4.2 -11.6,10.9 -13.7,18.9 -1.8,6.7 -1.8,14.5 -0.2,22.6 1.3,6.6 3.6,13.4 6.8,19.5 1.5,2.8 3.1,5.4 4.8,7.7 1,1.3 2,2.4 2.7,3.1 l 0.8,0.8 c 0.2,0.2 0.3,0.3 0.6,0.6 l 0.5,0.4 c 0.3,0.2 0.6,0.4 0.9,0.7 l 0.2,0.2 c 2.4,1.6 4.4,3.6 5.7,5.7 1.2,1.8 2.1,4 2.5,6.4 0.4,2 0.6,3.7 0.7,5.2 l 2.9,-0.2 c -0.1,0.9 -0.2,1.7 -0.3,2.3 l -0.5,3.8 5.6,-0.6 c 2.5,-0.2 4.7,-0.4 6.7,-0.5 l 2.8,-0.2 0.1,-2.5 1.8,0.3 v 3.6 h 2.9 l 0.7,-2.8 0.1,-0.6 c 0.3,-2.2 0.6,-5.1 1.6,-9 0.1,-0.6 0.4,-1.3 0.6,-2 l 0.3,-0.9 c 0.1,-0.3 0.2,-0.6 0.3,-0.9 0.3,-0.8 0.6,-1.5 0.9,-2.2 l 0.1,-0.2 c 0.4,-1 1,-2 1.7,-3.2 0.4,-0.5 0.8,-1.1 1.2,-1.7 0.5,-0.6 1.1,-1.2 1.6,-1.7 l 0.6,-0.5 c 0.2,-0.2 0.5,-0.4 0.7,-0.6 l 1.7,-1.2 c 0.9,-0.6 1.6,-1.2 2.3,-1.8 0.3,-0.3 0.6,-0.5 0.9,-0.8 l 0.3,-0.3 c 2.3,-2.4 4.2,-4.7 5.7,-7.3 3.5,-5.8 6,-12.6 7.3,-19.7 0.7,-4.2 1,-8 0.9,-11.5 0.2,-4.1 -0.4,-8.1 -1.4,-11.9 z m -45,24.7 c -1,1 -4.9,0.2 -6.1,-0.4 -0.1,-0.1 -0.3,-0.2 -0.5,-0.3 -1.9,-1.1 -6.9,-4.2 -3.6,-14.1 1.6,-1.3 7.9,-3.3 9.9,-3.3 0.4,0.4 1.3,1.6 1.9,4.5 1.1,5.9 -0.2,12.3 -1.6,13.6 z m 7.9,21.6 c -0.8,10.8 -1.2,21.6 -1.4,27.1 -0.7,0.1 -1.5,0.1 -2.3,0.2 1,-9 2.7,-27 2.4,-41.1 0.8,0 1.6,0 2.5,0 -0.5,3.9 -0.9,8.5 -1.2,13.8 z m 30.7,-24.2 c -1.1,6.2 -3.3,12.1 -6.3,17.1 -1.2,2 -2.8,3.9 -4.6,5.9 -0.3,0.3 -0.6,0.6 -1,0.8 -0.5,0.5 -1,0.9 -1.4,1.1 l -2,1.5 c -0.3,0.2 -0.6,0.4 -0.8,0.6 l -0.4,0.3 -0.9,0.8 c -0.7,0.7 -1.5,1.5 -2.2,2.3 l -0.2,0.2 c -0.5,0.7 -1,1.3 -1.4,2 l -0.2,0.2 c -0.8,1.4 -1.6,2.7 -2.2,4.1 -0.5,1 -0.9,2 -1.2,2.9 -0.1,0.3 -0.2,0.6 -0.3,0.9 l -0.4,1.2 c -0.1,0.3 -0.2,0.5 -0.2,0.8 0.2,-5.3 0.6,-11.6 1,-18 v 0 c 0.4,-6.2 0.9,-11.4 1.4,-15.6 2.3,-0.5 6.2,-1.6 8.1,-2.6 4.2,-1 13.2,-3.6 9.9,-19.7 -0.5,-2.5 -5.2,-6.3 -9.5,-7 -2.3,-0.4 -6.7,-0.2 -9.8,5.1 -0.8,1.2 -1.3,3.3 -2.5,14.5 -0.2,1.9 -0.4,3.6 -0.6,5.1 -1.6,0 -3.2,0 -4.9,0 2.2,-4.6 2.3,-11.9 1.4,-16.4 -0.9,-4.8 -2.8,-7.9 -5.6,-9.1 -3.5,-1.5 -12.4,2.3 -12.4,2.4 -3.1,1.4 -4.7,2.6 -5.2,4.3 -2.4,6.8 -3.3,16.1 6,21.7 0.1,0.1 0.2,0.1 0.2,0.2 1,0.7 5.8,2.5 9.9,1.6 0.3,9.4 -0.4,21 -1.2,30.4 -0.4,-0.8 -0.8,-1.6 -1.3,-2.4 -1.8,-2.9 -4.5,-5.5 -7.6,-7.7 -0.3,-0.2 -0.6,-0.4 -0.8,-0.7 l -0.5,-0.4 -0.7,-0.7 c -0.6,-0.6 -1.4,-1.4 -2.1,-2.4 -1.5,-1.9 -2.9,-4.2 -4.2,-6.6 -2.8,-5.5 -4.9,-11.6 -6.1,-17.5 -1.4,-7 -1.4,-13.7 0.1,-19.3 1.6,-6.2 5.2,-11.2 10.5,-14.5 2.9,-1.8 6.1,-3.2 9.5,-4.3 l 0.2,-0.1 c 0.4,-0.1 0.9,-0.3 1.4,-0.4 0.4,-0.1 0.8,-0.2 1.1,-0.3 l 1.5,-0.4 h 1.2 l 0.2,-0.2 3.3,-0.6 c 0.3,0 0.6,-0.1 0.8,-0.1 l 4.2,-0.4 h 2.8 0.2 c 0.6,0 1.4,0 2.2,0.1 l 1.7,0.2 3.7,0.7 2.5,0.8 0.2,0.1 c 0.1,0 0.4,0.2 0.7,0.3 l 1.3,0.6 0.2,0.1 c 0.4,0.1 0.8,0.4 1.3,0.7 0.2,0.1 0.4,0.3 0.6,0.4 5.1,3.1 9,8.7 10.8,15.5 0.9,3.3 1.3,6.7 1.4,10.2 0,2.7 -0.2,6 -0.8,9.7 z m -21.3,2.2 c 0.1,-0.7 0.2,-1.5 0.3,-2.2 0.5,-3.9 1.2,-10.5 1.7,-12 v 0 c 1.1,-2 2.2,-2.3 2.9,-2.3 2,-0.1 4.5,1.8 5.3,2.7 2,10.2 -1.9,11.2 -5.7,12.1 l -0.9,0.2 -0.4,0.3 c -0.6,0.3 -1.8,0.7 -3.2,1.2 z"
     inkscape:connector-curvature="0" /><g
     id="XMLID_40_"
     transform="translate(-50.9,-4.4)" /><g
     id="XMLID_42_"
     transform="translate(-50.9,-4.4)" /><g
     id="XMLID_46_"
     transform="translate(-50.9,-4.4)" /><g
     id="XMLID_47_"
     transform="translate(-50.9,-4.4)" /><g
     id="XMLID_48_"
     transform="translate(-50.9,-4.4)" /><g
     id="XMLID_49_"
     transform="translate(-50.9,-4.4)" /></svg>